<svg xmlns="http://www.w3.org/2000/svg" viewBox="0 0 256 256" role="img" aria-labelledby="title">
  <title id="title">Logo Universitario Japon para PDF</title>
  <rect width="256" height="256" rx="40" fill="#5a1cb2"/>
  <path d="M84 57h36c4 0 8 4 8 8v98c0 6-6 10-12 8-17-5-33-13-48-24-5-4-8-9-8-15V65c0-4 4-8 8-8h16z" fill="#ffd54b"/>
  <path d="M151 57h34c6 0 10 4 10 10v89c0 53-32 82-85 82-34 0-67-16-94-46-3-3-1-8 3-9l19-6c3-1 5 0 7 2 22 18 44 27 66 27 34 0 52-18 52-54V67c0-6 4-10 10-10h-22z" fill="#ffe28c"/>
  <path d="M45 146c24 22 51 38 81 45 33 8 62 3 87-12-15 21-35 37-58 46-29 11-60 10-88-3-28-13-50-35-65-64 15 0 29-4 43-12z" fill="#ffc400"/>
</svg>
